<?xml version="1.0" encoding="iso-8859-1"?>
<!-- Generator: Adobe Illustrator 19.0.0, SVG Export Plug-In . SVG Version: 6.00 Build 0)  -->
<svg version="1.1" id="Layer_1" xmlns="http://www.w3.org/2000/svg" xmlns:xlink="http://www.w3.org/1999/xlink" x="0px" y="0px"
	 viewBox="0 0 512 512" style="enable-background:new 0 0 512 512;" xml:space="preserve">
<circle style="fill:#FFC61B;" cx="256" cy="256" r="256"/>
<path style="fill:#D48B07;" d="M508.625,214.447L400.101,105.924L102.538,411.529l93.358,93.358
	C215.174,509.524,235.298,512,256,512c141.384,0,256-114.616,256-256C512,241.85,510.833,227.973,508.625,214.447z"/>
<polygon style="fill:#366695;" points="106.396,415.385 120.923,408.121 107.979,395.178 100.716,409.707 "/>
<polygon style="fill:#273B7A;" points="102.497,411.488 106.396,415.385 120.923,408.121 113.35,400.548 "/>
<polygon style="fill:#38C6D9;" points="121.123,413.777 169.231,389.723 126.374,346.865 102.321,394.974 "/>
<polygon style="fill:#19B0BC;" points="110.633,403.287 121.123,413.777 169.231,389.723 146.57,367.063 "/>
<path style="fill:#366695;" d="M428.047,133.87l-45.82-45.82c-1.238-1.239-2.919-1.934-4.67-1.934c-1.752,0-3.431,0.695-4.67,1.934
	L116.917,344.021c-1.239,1.238-1.934,2.919-1.934,4.67c0,1.751,0.695,3.431,1.934,4.67l45.82,45.818
	c1.289,1.289,2.981,1.934,4.67,1.934c1.689,0,3.381-0.645,4.67-1.934L428.047,143.21
	C430.626,140.631,430.626,136.449,428.047,133.87z"/>
<g>
	<path style="fill:#273B7A;" d="M428.047,133.87l-25.166-25.166L138.626,375.068l24.111,24.111c1.289,1.289,2.981,1.934,4.67,1.934
		c1.689,0,3.381-0.645,4.67-1.934L428.047,143.21C430.628,140.631,430.628,136.449,428.047,133.87z"/>
	<path style="fill:#273B7A;" d="M428.047,133.87c0,0-46.895-46.897-47.116-47.118c-10.274-10.273-26.991-10.271-37.264,0.002
		l-90.452,90.453c-2.581,2.579-2.581,6.761,0,9.34c1.289,1.289,2.981,1.934,4.67,1.934s3.381-0.645,4.67-1.934l90.452-90.452
		c3.932-3.932,9.754-4.836,14.567-2.731L265.502,195.437l55.158,55.16l107.387-107.386
		C430.628,140.631,430.628,136.449,428.047,133.87z"/>
</g>
<path style="fill:#121149;" d="M428.047,133.87c0,0-12.874-12.876-25.164-25.166L291.273,221.206l29.389,29.389L428.049,143.21
	C430.628,140.631,430.628,136.449,428.047,133.87z"/>
<g>
</g>
<g>
</g>
<g>
</g>
<g>
</g>
<g>
</g>
<g>
</g>
<g>
</g>
<g>
</g>
<g>
</g>
<g>
</g>
<g>
</g>
<g>
</g>
<g>
</g>
<g>
</g>
<g>
</g>
</svg>
